<svg width="1024" height="1024" viewBox="0 0 1024 1024" fill="none" xmlns="http://www.w3.org/2000/svg">
<rect x="50" y="51" width="923" height="923" rx="318" fill="#27C840"/>
<path d="M867.246 493.74C878.041 493.74 887 502.205 887 513C887 690.767 763.306 839.642 597.292 878.255C571.955 884.149 549.388 863.601 549.388 837.587V766.592C549.388 742.291 569.087 722.592 593.388 722.592H709.131C746.047 722.591 775.974 692.665 775.974 655.749C775.973 618.833 746.047 588.907 709.131 588.906H593.388C569.087 588.906 549.388 569.207 549.388 544.906V537.74C549.388 513.44 569.087 493.74 593.388 493.74H867.246ZM512 138C636.632 138 747.063 198.801 815.251 292.358C834.294 318.487 813.514 352.124 781.182 352.124H484.244C483.766 352.124 483.288 352.13 482.812 352.14C482.347 352.13 481.879 352.124 481.411 352.124C443.869 352.124 413.436 382.558 413.436 420.1V817.36C413.436 846.355 385.753 867.412 359.276 855.592C228.29 797.111 137 665.717 137 513C137 305.893 304.893 138 512 138Z" fill="black"/>
<mask id="mask0_7_173" style="mask-type:alpha" maskUnits="userSpaceOnUse" x="137" y="138" width="750" height="750">
<circle cx="512" cy="513" r="375" fill="black"/>
</mask>
<g mask="url(#mask0_7_173)">
</g>
</svg>
